<svg xmlns="http://www.w3.org/2000/svg" viewBox="0 0 460 300" width="460" height="300">
  <!-- GENERATED by tools/build_controller_art.py. Do not edit by hand; edit the
       spec in that file and re-run it.
       Flat silhouette style: solid body, controls as light cut-outs. Every
       control is a group id="c_name" that the preview resolves with
       QSvgRenderer.boundsOnElement to place its pressed highlight. -->
  <g id="c_lt"><rect x="94" y="13" width="76" height="26" rx="13" fill="#e9eef5"/><text x="132" y="30.55" font-family="Segoe UI, Helvetica, Arial, sans-serif" font-size="13" font-weight="700" fill="#1b2129" text-anchor="middle">L2</text></g>
  <g id="c_rt"><rect x="290" y="13" width="76" height="26" rx="13" fill="#e9eef5"/><text x="328" y="30.55" font-family="Segoe UI, Helvetica, Arial, sans-serif" font-size="13" font-weight="700" fill="#1b2129" text-anchor="middle">R2</text></g>
  <g id="c_lb"><rect x="97" y="47" width="86" height="22" rx="11" fill="#e9eef5"/><text x="140" y="62.2" font-family="Segoe UI, Helvetica, Arial, sans-serif" font-size="12" font-weight="700" fill="#1b2129" text-anchor="middle">L1</text></g>
  <g id="c_rb"><rect x="277" y="47" width="86" height="22" rx="11" fill="#e9eef5"/><text x="320" y="62.2" font-family="Segoe UI, Helvetica, Arial, sans-serif" font-size="12" font-weight="700" fill="#1b2129" text-anchor="middle">R1</text></g>

  <path d="M 230 60 C 198 60 172 63 154 68 C 112 79 82 108 68 150 C 54 192 48 234 58 264 C 68 294 98 302 122 288 C 143 276 158 254 168 234 C 178 219 192 213 210 212 L 250 212 C 268 213 282 219 292 234 C 302 254 317 276 338 288 C 362 302 392 294 402 264 C 412 234 406 192 392 150 C 378 108 348 79 306 68 C 288 63 262 60 230 60 Z" fill="#1c222a" stroke="#e9eef5" stroke-width="3" stroke-linejoin="round"/>

  <path d="M 188 104 h 84 a 8 8 0 0 1 8 8 v 50 a 8 8 0 0 1 -8 8 h -84 a 8 8 0 0 1 -8 -8 v -50 a 8 8 0 0 1 8 -8 z" fill="#151a20" stroke="#e9eef5" stroke-width="3" opacity="1"/>
  <path d="M 115 107 h 18 v 18 h 18 v 18 h -18 v 18 h -18 v -18 h -18 v -18 h 18 z" fill="#e9eef5" stroke-linejoin="round"/><g id="c_dup"><rect x="115" y="107" width="18" height="18" fill="#ffffff" opacity="0"/></g><g id="c_ddown"><rect x="115" y="143" width="18" height="18" fill="#ffffff" opacity="0"/></g><g id="c_dleft"><rect x="97" y="125" width="18" height="18" fill="#ffffff" opacity="0"/></g><g id="c_dright"><rect x="133" y="125" width="18" height="18" fill="#ffffff" opacity="0"/></g>
  <g id="c_y"><circle cx="340" cy="104" r="16" fill="#e9eef5"/><text x="340" y="109.6" font-family="Segoe UI, Helvetica, Arial, sans-serif" font-size="16" font-weight="700" fill="#1b2129" text-anchor="middle">△</text></g>
  <g id="c_b"><circle cx="370" cy="134" r="16" fill="#e9eef5"/><text x="370" y="139.6" font-family="Segoe UI, Helvetica, Arial, sans-serif" font-size="16" font-weight="700" fill="#1b2129" text-anchor="middle">○</text></g>
  <g id="c_x"><circle cx="310" cy="134" r="16" fill="#e9eef5"/><text x="310" y="139.6" font-family="Segoe UI, Helvetica, Arial, sans-serif" font-size="16" font-weight="700" fill="#1b2129" text-anchor="middle">□</text></g>
  <g id="c_a"><circle cx="340" cy="164" r="16" fill="#e9eef5"/><text x="340" y="169.6" font-family="Segoe UI, Helvetica, Arial, sans-serif" font-size="16" font-weight="700" fill="#1b2129" text-anchor="middle">✕</text></g>
  <g id="c_lstick"><circle cx="180" cy="180" r="29" fill="#151a20" stroke="#e9eef5" stroke-width="4.64"/><circle cx="180" cy="180" r="15.08" fill="#e9eef5"/></g>
  <g id="c_rstick"><circle cx="282" cy="180" r="29" fill="#151a20" stroke="#e9eef5" stroke-width="4.64"/><circle cx="282" cy="180" r="15.08" fill="#e9eef5"/></g>
  <g id="c_back"><circle cx="152" cy="104" r="9" fill="#e9eef5"/></g>
  <g id="c_start"><circle cx="310" cy="104" r="9" fill="#e9eef5"/></g>
  <g id="c_guide"><circle cx="231" cy="188" r="11" fill="#e9eef5"/></g>
  <g id="c_capture"><circle cx="231" cy="160" r="9" fill="#e9eef5"/></g>
</svg>
